<mxfile host="app.diagrams.net" agent="Mozilla/5.0 (Windows NT 10.0; Win64; x64; rv:138.0) Gecko/20100101 Firefox/138.0" version="27.0.9">
  <diagram name="Seite-1" id="RbFRghcqbMyYufJ2pFS2">
    <mxGraphModel dx="689" dy="373" grid="1" gridSize="10" guides="1" tooltips="1" connect="1" arrows="1" fold="1" page="1" pageScale="1" pageWidth="827" pageHeight="1169" math="0" shadow="0">
      <root>
        <mxCell id="0" />
        <mxCell id="1" parent="0" />
        <mxCell id="Qk3QkM6t1ZJvP8YqAWVl-40" style="edgeStyle=orthogonalEdgeStyle;rounded=0;orthogonalLoop=1;jettySize=auto;html=1;exitX=0;exitY=0.5;exitDx=0;exitDy=0;fillColor=#dae8fc;strokeColor=#6c8ebf;" edge="1" parent="1" source="Qk3QkM6t1ZJvP8YqAWVl-17">
          <mxGeometry relative="1" as="geometry">
            <mxPoint x="300" y="200" as="targetPoint" />
          </mxGeometry>
        </mxCell>
        <mxCell id="Qk3QkM6t1ZJvP8YqAWVl-22" style="edgeStyle=orthogonalEdgeStyle;rounded=0;orthogonalLoop=1;jettySize=auto;html=1;exitX=1;exitY=1;exitDx=0;exitDy=0;entryX=0.5;entryY=0;entryDx=0;entryDy=0;fillColor=#f5f5f5;strokeColor=#666666;" edge="1" parent="1" source="Qk3QkM6t1ZJvP8YqAWVl-1" target="Qk3QkM6t1ZJvP8YqAWVl-21">
          <mxGeometry relative="1" as="geometry" />
        </mxCell>
        <mxCell id="Qk3QkM6t1ZJvP8YqAWVl-1" value="A" style="rounded=0;whiteSpace=wrap;html=1;fillColor=#dae8fc;strokeColor=#6c8ebf;" vertex="1" parent="1">
          <mxGeometry x="200" y="200" width="200" height="20" as="geometry" />
        </mxCell>
        <mxCell id="Qk3QkM6t1ZJvP8YqAWVl-32" style="edgeStyle=orthogonalEdgeStyle;rounded=0;orthogonalLoop=1;jettySize=auto;html=1;exitX=1;exitY=1;exitDx=0;exitDy=0;entryX=0.5;entryY=0;entryDx=0;entryDy=0;fillColor=#f5f5f5;strokeColor=#666666;" edge="1" parent="1" source="Qk3QkM6t1ZJvP8YqAWVl-2" target="Qk3QkM6t1ZJvP8YqAWVl-28">
          <mxGeometry relative="1" as="geometry" />
        </mxCell>
        <mxCell id="Qk3QkM6t1ZJvP8YqAWVl-2" value="B" style="rounded=0;whiteSpace=wrap;html=1;fillColor=#fff2cc;strokeColor=#d6b656;" vertex="1" parent="1">
          <mxGeometry x="400" y="200" width="200" height="20" as="geometry" />
        </mxCell>
        <mxCell id="Qk3QkM6t1ZJvP8YqAWVl-7" value="" style="group" vertex="1" connectable="0" parent="1">
          <mxGeometry x="160" y="140" width="80" height="60" as="geometry" />
        </mxCell>
        <mxCell id="Qk3QkM6t1ZJvP8YqAWVl-3" value="" style="endArrow=classic;html=1;rounded=0;" edge="1" parent="Qk3QkM6t1ZJvP8YqAWVl-7">
          <mxGeometry width="50" height="50" relative="1" as="geometry">
            <mxPoint x="39.889999999999986" y="30" as="sourcePoint" />
            <mxPoint x="39.889999999999986" y="60" as="targetPoint" />
          </mxGeometry>
        </mxCell>
        <mxCell id="Qk3QkM6t1ZJvP8YqAWVl-6" value="&lt;div&gt;DMA&lt;/div&gt;&lt;div&gt;current index&lt;/div&gt;" style="rounded=0;whiteSpace=wrap;html=1;" vertex="1" parent="Qk3QkM6t1ZJvP8YqAWVl-7">
          <mxGeometry width="80" height="30" as="geometry" />
        </mxCell>
        <mxCell id="Qk3QkM6t1ZJvP8YqAWVl-30" style="edgeStyle=orthogonalEdgeStyle;rounded=0;orthogonalLoop=1;jettySize=auto;html=1;exitX=1;exitY=0.75;exitDx=0;exitDy=0;curved=1;" edge="1" parent="1" source="Qk3QkM6t1ZJvP8YqAWVl-8">
          <mxGeometry relative="1" as="geometry">
            <mxPoint x="200" y="200" as="targetPoint" />
            <Array as="points">
              <mxPoint x="150" y="102" />
              <mxPoint x="150" y="180" />
              <mxPoint x="200" y="180" />
            </Array>
          </mxGeometry>
        </mxCell>
        <mxCell id="Qk3QkM6t1ZJvP8YqAWVl-8" value="Buffer start address" style="rounded=0;whiteSpace=wrap;html=1;" vertex="1" parent="1">
          <mxGeometry x="60" y="80" width="80" height="30" as="geometry" />
        </mxCell>
        <mxCell id="Qk3QkM6t1ZJvP8YqAWVl-31" style="edgeStyle=orthogonalEdgeStyle;rounded=0;orthogonalLoop=1;jettySize=auto;html=1;exitX=0;exitY=0.75;exitDx=0;exitDy=0;curved=1;" edge="1" parent="1" source="Qk3QkM6t1ZJvP8YqAWVl-9">
          <mxGeometry relative="1" as="geometry">
            <mxPoint x="600" y="200" as="targetPoint" />
            <Array as="points">
              <mxPoint x="650" y="102" />
              <mxPoint x="650" y="180" />
              <mxPoint x="600" y="180" />
            </Array>
          </mxGeometry>
        </mxCell>
        <mxCell id="Qk3QkM6t1ZJvP8YqAWVl-9" value="Buffer end address" style="rounded=0;whiteSpace=wrap;html=1;" vertex="1" parent="1">
          <mxGeometry x="660" y="80" width="80" height="30" as="geometry" />
        </mxCell>
        <mxCell id="Qk3QkM6t1ZJvP8YqAWVl-10" value="" style="endArrow=classic;dashed=1;html=1;dashPattern=1 3;strokeWidth=2;rounded=0;endFill=1;" edge="1" parent="1">
          <mxGeometry width="50" height="50" relative="1" as="geometry">
            <mxPoint x="120" y="200" as="sourcePoint" />
            <mxPoint x="680" y="200" as="targetPoint" />
          </mxGeometry>
        </mxCell>
        <mxCell id="Qk3QkM6t1ZJvP8YqAWVl-12" style="edgeStyle=orthogonalEdgeStyle;rounded=0;orthogonalLoop=1;jettySize=auto;html=1;exitX=0.75;exitY=1;exitDx=0;exitDy=0;" edge="1" parent="1" source="Qk3QkM6t1ZJvP8YqAWVl-11">
          <mxGeometry relative="1" as="geometry">
            <mxPoint x="127.66666666666663" y="200" as="targetPoint" />
          </mxGeometry>
        </mxCell>
        <mxCell id="Qk3QkM6t1ZJvP8YqAWVl-11" value="Address space" style="rounded=0;whiteSpace=wrap;html=1;" vertex="1" parent="1">
          <mxGeometry x="50" y="160" width="90" height="20" as="geometry" />
        </mxCell>
        <mxCell id="Qk3QkM6t1ZJvP8YqAWVl-17" value="&lt;div&gt;Current active DMA&lt;/div&gt;&lt;div&gt;buffer (ping)&lt;/div&gt;" style="rounded=0;whiteSpace=wrap;html=1;fillColor=#dae8fc;strokeColor=#6c8ebf;" vertex="1" parent="1">
          <mxGeometry x="345" y="30" width="110" height="40" as="geometry" />
        </mxCell>
        <mxCell id="Qk3QkM6t1ZJvP8YqAWVl-39" style="edgeStyle=orthogonalEdgeStyle;rounded=0;orthogonalLoop=1;jettySize=auto;html=1;exitX=1;exitY=0.5;exitDx=0;exitDy=0;fillColor=#fff2cc;strokeColor=#d6b656;" edge="1" parent="1" source="Qk3QkM6t1ZJvP8YqAWVl-19">
          <mxGeometry relative="1" as="geometry">
            <mxPoint x="500" y="200" as="targetPoint" />
          </mxGeometry>
        </mxCell>
        <mxCell id="Qk3QkM6t1ZJvP8YqAWVl-19" value="&lt;div&gt;Current active Audio processing&lt;/div&gt;&lt;div&gt;buffer (pong)&lt;/div&gt;" style="rounded=0;whiteSpace=wrap;html=1;fillColor=#fff2cc;strokeColor=#d6b656;" vertex="1" parent="1">
          <mxGeometry x="345" y="80" width="110" height="50" as="geometry" />
        </mxCell>
        <mxCell id="Qk3QkM6t1ZJvP8YqAWVl-24" style="edgeStyle=orthogonalEdgeStyle;rounded=0;orthogonalLoop=1;jettySize=auto;html=1;exitX=0.5;exitY=1;exitDx=0;exitDy=0;entryX=0.25;entryY=0;entryDx=0;entryDy=0;fillColor=#f5f5f5;strokeColor=#666666;" edge="1" parent="1" source="Qk3QkM6t1ZJvP8YqAWVl-21" target="Qk3QkM6t1ZJvP8YqAWVl-23">
          <mxGeometry relative="1" as="geometry" />
        </mxCell>
        <mxCell id="Qk3QkM6t1ZJvP8YqAWVl-21" value="DMA half complete interrupt" style="rounded=0;whiteSpace=wrap;html=1;fillColor=#f5f5f5;strokeColor=#666666;fontColor=#333333;" vertex="1" parent="1">
          <mxGeometry x="350" y="240" width="100" height="40" as="geometry" />
        </mxCell>
        <mxCell id="Qk3QkM6t1ZJvP8YqAWVl-34" style="edgeStyle=orthogonalEdgeStyle;rounded=0;orthogonalLoop=1;jettySize=auto;html=1;exitX=0.5;exitY=1;exitDx=0;exitDy=0;entryX=0.5;entryY=0;entryDx=0;entryDy=0;fillColor=#f5f5f5;strokeColor=#666666;" edge="1" parent="1" source="Qk3QkM6t1ZJvP8YqAWVl-23" target="Qk3QkM6t1ZJvP8YqAWVl-33">
          <mxGeometry relative="1" as="geometry" />
        </mxCell>
        <mxCell id="Qk3QkM6t1ZJvP8YqAWVl-23" value="&lt;div&gt;Switch buffers&lt;/div&gt;&lt;div&gt;(ping pong)&lt;/div&gt;" style="rounded=0;whiteSpace=wrap;html=1;fillColor=#f5f5f5;strokeColor=#666666;fontColor=#333333;" vertex="1" parent="1">
          <mxGeometry x="450" y="320" width="100" height="40" as="geometry" />
        </mxCell>
        <mxCell id="Qk3QkM6t1ZJvP8YqAWVl-27" style="edgeStyle=orthogonalEdgeStyle;rounded=0;orthogonalLoop=1;jettySize=auto;html=1;exitX=0.5;exitY=1;exitDx=0;exitDy=0;entryX=0.75;entryY=0;entryDx=0;entryDy=0;fillColor=#f5f5f5;strokeColor=#666666;" edge="1" parent="1" source="Qk3QkM6t1ZJvP8YqAWVl-28" target="Qk3QkM6t1ZJvP8YqAWVl-23">
          <mxGeometry relative="1" as="geometry">
            <mxPoint x="600" y="300" as="targetPoint" />
          </mxGeometry>
        </mxCell>
        <mxCell id="Qk3QkM6t1ZJvP8YqAWVl-28" value="DMA complete interrupt" style="rounded=0;whiteSpace=wrap;html=1;fillColor=#f5f5f5;strokeColor=#666666;fontColor=#333333;" vertex="1" parent="1">
          <mxGeometry x="550" y="240" width="100" height="40" as="geometry" />
        </mxCell>
        <mxCell id="Qk3QkM6t1ZJvP8YqAWVl-33" value="Set data ready flag" style="rounded=0;whiteSpace=wrap;html=1;fillColor=#f5f5f5;strokeColor=#666666;fontColor=#333333;" vertex="1" parent="1">
          <mxGeometry x="445" y="380" width="110" height="20" as="geometry" />
        </mxCell>
      </root>
    </mxGraphModel>
  </diagram>
</mxfile>
